# xmcd
# 
# Track frame offsets:
#     150
#     19515
#     35514
#     54830
#     69630
#     91639
#     112860
#     131913
#     148635
#     166416
#     186868
#     207679
#     224735
#     245246
# 
# Disc length: 3541
# 
# Revision: 4
# Processed by: cddbd v1.5.2PL0 Copyright (c) Steve Scherf et al.
# Submitted via: fre:ac v1.0.31
# 
DISCID=d10dd30e
DTITLE=Billy Idol - Devil's Playground
DYEAR=2004
DGENRE=Rock/Pop
TTITLE0=Super Overdrive
TTITLE1=World Comin' Down
TTITLE2=Rat Race
TTITLE3=Sherri
TTITLE4=Plastic Jesus
TTITLE5=Scream
TTITLE6=Yellin' At The Xmas Tree
TTITLE7=Romeo's Waiting
TTITLE8=Body Snatcher
TTITLE9=Evil Eye
TTITLE10=Lady Do Or Die
TTITLE11=Cherie
TTITLE12=Summer Running
TTITLE13=Bleeding Me Insane
EXTD=YEAR: 2004
EXTT0=
EXTT1=
EXTT2=
EXTT3=
EXTT4=
EXTT5=
EXTT6=
EXTT7=
EXTT8=
EXTT9=
EXTT10=
EXTT11=
EXTT12=
EXTT13=
PLAYORDER=
